<svg xmlns="http://www.w3.org/2000/svg" viewBox="0 0 32 32" fill="none">
  <!-- Rounded dark background for the icon -->
  <rect width="32" height="32" rx="8" fill="#0D0E11"/>
  <!-- Sleek border outline -->
  <rect x="0.5" y="0.5" width="31" height="31" rx="7.5" stroke="#1f242e" stroke-opacity="0.8"/>
  <!-- Brand logo mark representing doc to markdown -->
  <path d="M9 7C9 6.44772 9.44772 6 10 6H18L23 11V25C23 25.5523 22.5523 26 22 26H10C9.44772 26 9 25.5523 9 25V7Z" stroke="#00d8f6" stroke-width="1.5" stroke-linejoin="round" fill="#00d8f6" fill-opacity="0.05"/>
  <path d="M18 6V11H23" stroke="#00d8f6" stroke-width="1.5" stroke-linejoin="round"/>
  <!-- Markdown '#' symbol -->
  <path d="M12 14H15.5M13.5 12.5V16" stroke="#00d8f6" stroke-width="1.2" stroke-linecap="round"/>
  <path d="M16.5 14H20M18 12.5V16" stroke="#00d8f6" stroke-width="1.2" stroke-linecap="round"/>
  <!-- Down arrow representing compiler/conversion -->
  <path d="M16 19.5V22.5M16 22.5L14.5 21M16 22.5L17.5 21" stroke="#00d8f6" stroke-width="1.2" stroke-linecap="round" stroke-linejoin="round"/>
</svg>
